# AST/ASF file generated using VICON BodyLanguage
# -----------------------------------------------
:version 1.10
:name VICON
:units
  mass 1.0
  length 0.45
  angle deg
:documentation
   .ast/.asf automatically generated from VICON data using
   VICON BodyBuilder and BodyLanguage model FoxedUp or BRILLIANT.MOD
:root
   order TX TY TZ RX RY RZ
   axis XYZ
   position 0 0 0  
   orientation 0 0 0 
:bonedata
  begin
     id 1 
     name lhipjoint
     direction 0.653368 -0.678499 0.335782 
     length 2.51848 
     axis 0 0 0  XYZ
  end
  begin
     id 2 
     name lfemur
     direction 0.34202 -0.939693 0  
     length 6.57749  
     axis 0 0 20  XYZ
    dof rx ry rz
    limits (-160.0 20.0)
           (-70.0 70.0)
           (-60.0 70.0)
  end
  begin
     id 3 
     name ltibia
     direction 0.34202 -0.939693 0   
     length 7.94618   
     axis 0 0 20   XYZ
    dof rx
    limits (-10.0 170.0)
  end
  begin
     id 4 
     name lfoot
     direction 0.0811271 -0.222895 0.971461   
     length 2.31339   
     axis -90 7.62852e-016 20   XYZ
    dof rx rz
    limits (-45.0 90.0)
           (-70.0 20.0)
  end
  begin
     id 5 
     name ltoes
     direction 1.53568e-011 -4.21885e-011 1   
     length 1.15935   
     axis -90 7.62852e-016 20   XYZ
    dof rx
    limits (-90.0 20.0)
  end
  begin
     id 6 
     name rhipjoint
     direction -0.640058 -0.688614 0.340788   
     length 2.48149  
     axis 0 0 0  XYZ 
  end
  begin
     id 7 
     name rfemur
     direction -0.34202 -0.939693 0   
     length 6.57875   
     axis 0 0 -20   XYZ
    dof rx ry rz
    limits (-160.0 20.0)
           (-70.0 70.0)
           (-70.0 60.0)
  end
  begin
     id 8 
     name rtibia
     direction -0.34202 -0.939693 0   
     length 7.977   
     axis 0 0 -20   XYZ
    dof rx
    limits (-10.0 170.0)
 end
 begin
     id 9 
     name rfoot
     direction -0.0979793 -0.269196 0.958089   
     length 2.19857  
     axis -90 -7.62852e-016 -20   XYZ
    dof rx rz
    limits (-45.0 90.0)
           (-20.0 70.0)
  end
  begin
     id 10 
     name rtoes
     direction -1.53556e-011 -4.21868e-011 1   
     length 1.09838   
     axis -90 -7.62852e-016 -20   XYZ
    dof rx
    limits (-90.0 20.0)
  end
  begin
     id 11 
     name lowerback
     direction 0.0149039 0.998517 -0.0523597   
     length 2.10809   
     axis 0 0 0   XYZ
    dof rx ry rz
    limits (-20.0 45.0)
           (-30.0 30.0)
           (-30.0 30.0)
  end
  begin
     id 12 
     name upperback
     direction -0.00882659 0.999418 -0.0329624   
     length 2.1102   
     axis 0 0 0   XYZ
    dof rx ry rz
    limits (-20.0 45.0)
           (-30.0 30.0)
           (-30.0 30.0)
  end
  begin
     id 13 
     name thorax
     direction -0.0165585 0.999826 -0.0085833   
     length 2.11039   
     axis 0 0 0   XYZ
    dof rx ry rz
    limits (-20.0 45.0)
           (-30.0 30.0)
           (-30.0 30.0)
  end
  begin
     id 14 
     name lowerneck
     direction -0.0130877 0.999911 0.00260353   
     length 1.73253   
     axis 0 0 0   XYZ
    dof rx ry rz
    limits (-20.0 45.0)
           (-30.0 30.0)
           (-30.0 30.0)
  end
  begin
     id 15 
     name upperneck
     direction -0.0348454 0.928205 -0.370435   
     length 1.66692   
     axis 0 0 0   XYZ
    dof rx ry rz
    limits (-20.0 45.0)
           (-30.0 30.0)
           (-30.0 30.0)
  end
  begin
     id 16
     name head
     direction -0.00807754 0.992494 -0.122026  
     length 1.72765  
     axis 0 0 0   XYZ
    dof rx ry rz
    limits (-20.0 45.0)
           (-30.0 30.0)
           (-30.0 30.0)
  end
  begin
     id 17 
     name lclavicle
     direction 0.987582 0.144023 0.0627671  
     length 3.49235  
     axis 0 0 0   XYZ
    dof ry rz
    limits (-20.0 10.0)
           (0.0 20.0)
  end
  begin
     id 18 
     name lhumerus
     direction 1 -4.48958e-011 -1.45183e-018   
     length 5.41917   
     axis 180 -30 -90   XYZ
    dof rx ry rz
    limits (-60.0 90.0)
           (-90.0 90.0)
           (-90.0 90.0)
  end
  begin
     id 19
     name lradius
     direction 1 -4.48999e-011 5.75106e-027   
     length 2.44373   
     axis 180 -30 -90   XYZ
    dof rx
    limits (-10.0 170.0)
  end
  begin
     id 20
     name lwrist
     direction 1 -4.48987e-011 1.53461e-026   
     length 1.22186   
     axis -1.09697e-014 90 90   XYZ
    dof ry
    limits (-180.0 0.0)
 end
  begin
     id 21 
     name lhand
     direction 1 -4.48881e-011 3.06923e-026   
     length 0.727502   
     axis -1.95843e-014 90 90   XYZ
    dof rx rz
    limits (-90.0 90.0)
           (-45.0 45.0)
  end
  begin
     id 22 
     name lfingers
     direction 1 -4.48907e-011 6.13845e-026   
     length 0.586531   
     axis -3.91686e-014 90 90   XYZ
    dof rx
    limits (0.0 90.0)
  end
  begin
     id 23
     name lthumb
     direction 0.707107 -6.3487e-011 0.707107   
     length 0.842145   
     axis -90 45 2.85299e-015   XYZ
    dof rx rz
    limits (-45.0 45.0)
           (-45.0 45.0)
  end
  begin
     id 24 
     name rclavicle
     direction -0.980998 0.169556 0.0943023   
     length 3.29272  
     axis 0 0 0   XYZ 
    dof ry rz
    limits (-10.0 20.0)
           (-20.0 0.0)
  end
  begin
     id 25 
     name rhumerus
     direction -1 -1.83355e-005 2.45537e-005  
     length 5.58976   
     axis 180 30 90   XYZ
    dof rx ry rz
    limits (-90.0 60.0)
           (-90.0 90.0)
           (-90.0 90.0)
  end
  begin
     id 26 
     name rradius
     direction -1 -4.48967e-011 5.97228e-027   
     length 2.4806   
     axis 180 30 90   XYZ
    dof rx
    limits (-10.0 170.0)
  end
  begin
     id 27 
     name rwrist
     direction -1 -4.48963e-011 1.53461e-026   
     length 1.2403   
     axis -1.09697e-014 -90 -90   XYZ
    dof ry
    limits (-180.0 0.0)
  end
  begin
     id 28
     name rhand
     direction -1 -4.48881e-011 3.06923e-026   
     length 0.816009   
     axis -1.95843e-014 -90 -90   XYZ
    dof rx rz
    limits (-90.0 90.0)
           (-45.0 45.0)
  end
  begin
     id 29
     name rfingers
     direction -1 -4.49018e-011 6.13845e-026   
     length 0.657887   
     axis -3.91686e-014 -90 -90   XYZ
    dof rx
    limits (0.0 90.0)
  end
  begin
     id 30
     name rthumb
     direction -0.707107 -6.34872e-011 0.707107   
     length 0.944599   
     axis -90 -45 -2.85299e-015   XYZ
    dof rx rz
    limits (-45.0 45.0)
           (-45.0 45.0)
  end
:hierarchy
  begin
    root lhipjoint rhipjoint lowerback
    lhipjoint lfemur
    lfemur ltibia
    ltibia lfoot
    lfoot ltoes
    rhipjoint rfemur
    rfemur rtibia
    rtibia rfoot
    rfoot rtoes
    lowerback upperback
    upperback thorax
    thorax lowerneck lclavicle rclavicle
    lowerneck upperneck
    upperneck head
    lclavicle lhumerus
    lhumerus lradius
    lradius lwrist
    lwrist lhand lthumb
    lhand lfingers
    rclavicle rhumerus
    rhumerus rradius
    rradius rwrist
    rwrist rhand rthumb
    rhand rfingers
  end

#!OML:ASF F:\VICON\USERDATA\INSTALL\rory3\rory3.ASF
:FULLY-SPECIFIED
:DEGREES
131
root 0.882879 16.4737 36.7269 -155.435 -6.01823 -182.345
lowerback -18.0648 -0.290764 -5.71145
upperback -7.56281 -0.663183 -0.376996
thorax 1.9941 -0.767172 2.689
lowerneck -10.4933 0.380477 -2.14928
upperneck 36.3959 -3.40748 0.722709
head 14.2521 -3.09719 -0.191546
rclavicle -8.99345e-015 -6.55989e-015
rhumerus -46.5779 21.0418 -94.0904
rradius 21.8598
rwrist -12.8544
rhand 19.691 8.21518
rfingers 7.12502
rthumb 44.2471 -15.5749
lclavicle -8.99345e-015 -6.55989e-015
lhumerus -43.2195 -3.86349 77.2667
lradius 24.5679
lwrist -3.06643
lhand 25.1354 21.0678
lfingers 7.12502
lthumb 49.2855 42.6578
rfemur -35.2923 -23.081 32.291
rtibia 65.9808
rfoot 26.9295 -30.9413
rtoes 27.7955
lfemur -45.95 -2.12095 -32.4026
ltibia 45.4525
lfoot -35.2513 19.0023
ltoes 5.63776
132
root 0.885325 16.4733 36.734 -155.451 -6.04482 -182.273
lowerback -17.9454 -0.255569 -5.62036
upperback -7.59068 -0.639674 -0.390685
thorax 1.90116 -0.75422 2.62917
lowerneck -10.4271 0.356926 -2.14274
upperneck 36.3297 -3.45169 0.769795
head 14.2083 -3.10668 -0.176847
rclavicle 3.00615e-014 3.08116e-015
rhumerus -46.6238 21.0369 -94.1516
rradius 22.051
rwrist -12.9813
rhand 19.37 8.73181
rfingers 7.12502
rthumb 43.9478 -15.1705
lclavicle 3.00615e-014 3.08116e-015
lhumerus -43.3221 -3.88194 77.335
lradius 24.8892
lwrist -3.01306
lhand 25.3749 21.4229
lfingers 7.12502
lthumb 49.5052 42.9016
rfemur -35.2897 -22.9707 32.3723
rtibia 66.0052
rfoot 27.0455 -30.9834
rtoes 28.0319
lfemur -45.9898 -2.09464 -32.2973
ltibia 45.4677
lfoot -35.3421 18.8481
ltoes 5.53994
133
root 0.888325 16.4715 36.7435 -155.406 -5.91106 -182.341
lowerback -17.8567 -0.20408 -5.72282
upperback -7.64067 -0.569963 -0.451998
thorax 1.79357 -0.718855 2.63696
lowerneck -10.3256 0.334627 -2.11279
upperneck 36.2579 -3.50178 0.810935
head 14.1536 -3.11782 -0.169039
rclavicle 8.81175e-015 -1.6201e-014
rhumerus -46.7158 21.0513 -94.2577
rradius 22.2459
rwrist -13.0656
rhand 21.134 6.68089
rfingers 7.12502
rthumb 45.5899 -16.5825
lclavicle 8.81175e-015 -1.6201e-014
lhumerus -43.4153 -3.8937 77.4178
lradius 25.0399
lwrist -2.93499
lhand 25.3093 21.4416
lfingers 7.12502
lthumb 49.445 42.9509
rfemur -35.4278 -22.7677 32.2866
rtibia 66.0677
rfoot 20.7561 -30.3225
rtoes 33.4302
lfemur -46.0655 -2.05851 -32.3892
ltibia 45.4569
lfoot -35.4053 18.8265
ltoes 5.34695
134
root 0.889815 16.4706 36.754 -155.405 -5.8126 -182.45
lowerback -17.7113 -0.170083 -5.83217
upperback -7.66822 -0.518068 -0.529381
thorax 1.68202 -0.689624 2.62839
lowerneck -10.3254 0.321351 -2.08199
upperneck 36.2716 -3.55831 0.876307
head 14.1623 -3.13038 -0.156916
rclavicle 1.0958e-014 -2.18663e-015
rhumerus -46.7712 21.0254 -94.3708
rradius 22.335
rwrist -12.9885
rhand 21.7841 5.81938
rfingers 7.12502
rthumb 46.1934 -17.1942
lclavicle 1.0958e-014 -2.18663e-015
lhumerus -43.4623 -3.81124 77.3956
lradius 24.943
lwrist -2.93751
lhand 25.1149 21.0232
lfingers 7.12502
lthumb 49.2666 42.6227
rfemur -35.518 -22.6572 32.1548
rtibia 66.1342
rfoot 22.8575 -30.3229
rtoes 30.5225
lfemur -46.0688 -2.02218 -32.5376
ltibia 45.4157
lfoot -35.4928 18.7589
ltoes 5.46714
135
root 0.891511 16.4723 36.7562 -155.535 -6.00207 -182.532
lowerback -17.4929 -0.225934 -5.86084
upperback -7.64984 -0.585911 -0.559315
thorax 1.59415 -0.714876 2.60233
lowerneck -10.3977 0.322836 -2.06465
upperneck 36.3542 -3.60117 0.946666
head 14.2194 -3.14038 -0.141833
rclavicle 1.81904e-014 3.97569e-015
rhumerus -46.7939 20.9197 -94.3909
rradius 22.373
rwrist -12.7356
rhand 21.8207 5.56633
rfingers 7.12502
rthumb 46.2272 -17.433
lclavicle 1.81904e-014 3.97569e-015
lhumerus -43.5454 -3.75867 77.4321
lradius 24.9086
lwrist -2.96978
lhand 25.1388 20.9523
lfingers 7.12502
lthumb 49.2886 42.5407
rfemur -35.3592 -22.821 32.1061
rtibia 66.135
rfoot 21.9792 -30.0251
rtoes 30.8207
lfemur -45.8808 -1.96789 -32.6024
ltibia 45.3563
lfoot -35.47 18.4614
ltoes 5.53192
136
root 0.892873 16.4725 36.7566 -155.698 -6.21338 -182.62
lowerback -17.3049 -0.299 -5.9016
upperback -7.59669 -0.665718 -0.57424
thorax 1.56036 -0.745051 2.59643
lowerneck -10.4755 0.303218 -2.07033
upperneck 36.4104 -3.65585 1.00047
head 14.2659 -3.15813 -0.130148
rclavicle 2.1447e-015 -9.93923e-016
rhumerus -46.8067 20.9617 -94.4546
rradius 22.4059
rwrist -12.6412
rhand 22.0553 5.27832
rfingers 7.12502
rthumb 46.4447 -17.6287
lclavicle 2.1447e-015 -9.93923e-016
lhumerus -43.5967 -3.64538 77.5011
lradius 24.8557
lwrist -2.94003
lhand 25.0371 20.9884
lfingers 7.12502
lthumb 49.1953 42.6237
rfemur -35.1433 -23.0216 32.0357
rtibia 66.1247
rfoot 21.7195 -29.8092
rtoes 30.9107
lfemur -45.6308 -1.94689 -32.6542
ltibia 45.2945
lfoot -35.4825 18.1234
ltoes 5.67937
137
root 0.895095 16.4699 36.7666 -155.752 -6.27047 -182.655
lowerback -17.1466 -0.324709 -5.93369
upperback -7.57605 -0.693119 -0.579712
thorax 1.50237 -0.751877 2.60545
lowerneck -10.5996 0.28621 -2.08147
upperneck 36.4691 -3.69955 1.05591
head 14.3242 -3.16922 -0.115717
rclavicle -9.03849e-016 -2.10712e-014
rhumerus -46.8275 21.2605 -94.688
rradius 22.4774
rwrist -12.9039
rhand 22.276 4.97116
rfingers 7.12502
rthumb 46.6491 -17.8481
lclavicle -9.03849e-016 -2.10712e-014
lhumerus -43.5962 -3.29169 77.4197
lradius 24.8203
lwrist -3.0381
lhand 25.0782 20.9608
lfingers 7.12502
lthumb 49.233 42.5771
rfemur -35.1402 -23.0335 32.0371
rtibia 66.141
rfoot 21.5142 -29.8843
rtoes 31.1191
lfemur -45.5787 -1.93789 -32.6826
ltibia 45.2541
lfoot -35.4564 17.9788
ltoes 6.02945
138
root 0.896266 16.4705 36.7749 -155.735 -6.34078 -182.641
lowerback -17.0747 -0.339587 -5.89862
upperback -7.57933 -0.719909 -0.578795
thorax 1.46422 -0.763361 2.58271
lowerneck -10.6316 0.284106 -2.06653
upperneck 36.4829 -3.72497 1.10399
head 14.3396 -3.17118 -0.103487
rclavicle 1.04269e-014 7.55382e-015
rhumerus -46.865 21.5914 -94.9632
rradius 22.5626
rwrist -13.2744
rhand 22.3237 4.6383
rfingers 7.12502
rthumb 46.6933 -18.1618
lclavicle 1.04269e-014 7.55382e-015
lhumerus -43.6522 -3.07337 77.4053
lradius 24.9147
lwrist -3.03633
lhand 25.3922 20.9721
lfingers 7.12502
lthumb 49.521 42.4428
rfemur -35.2201 -23.0626 32.1225
rtibia 66.1521
rfoot 21.4991 -30.012
rtoes 30.2045
lfemur -45.6271 -1.89272 -32.6845
ltibia 45.2305
lfoot -35.2464 18.0642
ltoes 5.81678
139
root 0.894481 16.4715 36.7757 -155.749 -6.33037 -182.632
lowerback -17.0491 -0.315797 -5.84642
upperback -7.59092 -0.699634 -0.601309
thorax 1.43697 -0.754451 2.53357
lowerneck -10.441 0.247681 -2.09479
upperneck 36.4144 -3.80644 1.15424
head 14.2681 -3.2096 -0.0861011
rclavicle 1.23386e-014 -1.07344e-014
rhumerus -46.9361 21.7212 -95.1077
rradius 22.6887
rwrist -13.4492
rhand 22.5087 4.15739
rfingers 7.12502
rthumb 46.8645 -18.5683
lclavicle 1.23386e-014 -1.07344e-014
lhumerus -43.7823 -3.06044 77.5339
lradius 24.985
lwrist -2.77415
lhand 25.4764 20.8815
lfingers 7.12502
lthumb 49.5982 42.3127
rfemur -35.2025 -23.0748 32.1217
rtibia 66.1471
rfoot 23.8712 -30.2104
rtoes 28.8212
lfemur -45.6217 -1.82107 -32.7115
ltibia 45.2289
lfoot -35.1778 18.1943
ltoes 5.44977
140
root 0.893171 16.4702 36.7767 -155.828 -6.30797 -182.685
lowerback -16.9472 -0.311075 -5.8723
upperback -7.59355 -0.692984 -0.631258
thorax 1.37995 -0.748269 2.51904
lowerneck -10.1343 0.172909 -2.2424
upperneck 36.3215 -3.95673 1.26632
head 14.165 -3.29218 -0.0309896
rclavicle -3.55949e-015 1.15295e-014
rhumerus -47.0055 21.7619 -95.1847
rradius 22.8039
rwrist -13.4234
rhand 22.5866 3.8876
rfingers 7.12502
rthumb 46.9366 -18.8065
lclavicle -3.55949e-015 1.15295e-014
lhumerus -43.9028 -2.956 77.6386
lradius 24.9835
lwrist -2.61998
lhand 25.4012 21.0666
lfingers 7.12502
lthumb 49.5293 42.5331
rfemur -35.0948 -23.1085 32.0219
rtibia 66.1506
rfoot 26.7655 -30.4852
rtoes 28.9102
lfemur -45.54 -1.71177 -32.8204
ltibia 45.2481
lfoot -35.1673 18.2034
ltoes 5.08715
141
root 0.890604 16.4719 36.7762 -155.916 -6.33886 -182.634
lowerback -16.904 -0.30884 -5.77603
upperback -7.55633 -0.695784 -0.623025
thorax 1.3989 -0.748109 2.47303
lowerneck -10.4104 0.227237 -2.11772
upperneck 36.4954 -3.89072 1.20728
head 14.303 -3.25265 -0.0764907
rclavicle -3.76293e-015 2.36554e-014
rhumerus -47.1063 22.102 -95.4943
rradius 22.8531
rwrist -13.5804
rhand 24.504 1.78234
rfingers 7.12502
rthumb 48.7054 -20.0945
lclavicle -3.76293e-015 2.36554e-014
lhumerus -43.8679 -2.63234 77.6185
lradius 24.7694
lwrist -2.88223
lhand 25.43 21.1356
lfingers 7.12502
lthumb 49.5556 42.5886
rfemur -34.9581 -23.1881 32.0382
rtibia 66.0983
rfoot 26.6384 -30.7082
rtoes 29.6955
lfemur -45.4789 -1.63929 -32.7932
ltibia 45.3053
lfoot -35.1615 18.1823
ltoes 4.87803
142
root 0.907266 16.4748 36.8064 -155.495 -7.02462 -182.722
lowerback -16.7608 -0.556958 -5.89044
upperback -7.76546 -1.05646 -0.546568
thorax 1.13034 -0.926256 2.55928
lowerneck -10.5517 0.262855 -2.01747
upperneck 36.5918 -3.85323 1.16663
head 14.3765 -3.22782 -0.110231
rclavicle 1.98707e-014 -2.46493e-014
rhumerus -47.2372 22.4931 -95.8387
rradius 22.9508
rwrist -13.8405
rhand 24.7472 1.3047
rfingers 7.12502
rthumb 48.9289 -20.4628
lclavicle 1.98707e-014 -2.46493e-014
lhumerus -43.823 -2.28716 77.5789
lradius 24.5071
lwrist -3.2162
lhand 25.5708 20.8357
lfingers 7.12502
lthumb 49.6847 42.2224
rfemur -35.6894 -23.4862 32.5958
rtibia 66.1756
rfoot 20.4062 -31.38
rtoes 33.2848
lfemur -46.0698 -1.69302 -32.7975
ltibia 45.3546
lfoot -34.441 17.98
ltoes 4.19465
143
root 0.887104 16.4726 36.7818 -156.025 -6.48155 -182.308
lowerback -16.7494 -0.26234 -5.36165
upperback -7.5765 -0.700908 -0.537318
thorax 1.30211 -0.751127 2.3309
lowerneck -10.5424 0.290042 -1.91301
upperneck 36.6398 -3.82509 1.08493
head 14.3922 -3.21672 -0.159608
rclavicle 9.82742e-015 -5.96354e-015
rhumerus -47.3089 22.648 -95.9604
rradius 23.086
rwrist -13.9641
rhand 24.1871 2.39153
rfingers 7.12502
rthumb 48.4138 -19.6259
lclavicle 9.82742e-015 -5.96354e-015
lhumerus -43.9858 -2.21313 77.7113
lradius 24.5016
lwrist -3.14764
lhand 25.6404 20.4924
lfingers 7.12502
lthumb 49.7485 41.8463
rfemur -34.8457 -23.1819 32.3902
rtibia 66.0486
rfoot 20.0912 -31.216
rtoes 33.7846
lfemur -45.5237 -1.54733 -32.4628
ltibia 45.4234
lfoot -35.0481 18.3022
ltoes 4.48333
144
root 0.913799 16.4733 36.8292 -155.136 -7.67957 -182.72
lowerback -16.7268 -0.767425 -5.81362
upperback -7.91373 -1.3773 -0.436367
thorax 0.983254 -1.08861 2.57899
lowerneck -10.608 0.282949 -1.89401
upperneck 36.6389 -3.81093 1.03362
head 14.4048 -3.21046 -0.182266
rclavicle -1.37379e-014 -2.84262e-014
rhumerus -47.2917 22.958 -96.1097
rradius 23.2534
rwrist -14.3334
rhand 23.852 2.97276
rfingers 7.12502
rthumb 48.1052 -19.1908
lclavicle -1.37379e-014 -2.84262e-014
lhumerus -44.1247 -2.26599 77.9828
lradius 24.5931
lwrist -2.78166
lhand 25.6087 20.2128
lfingers 7.12502
lthumb 49.7194 41.5816
rfemur -36.3684 -23.8248 33.1584
rtibia 66.2491
rfoot 19.6663 -31.5935
rtoes 34.1832
lfemur -46.5642 -1.97622 -32.667
ltibia 45.4062
lfoot -33.979 17.9398
ltoes 3.65165
145
root 0.889891 16.4763 36.7942 -156.004 -7.09103 -182.375
lowerback -16.6438 -0.513443 -5.374
upperback -7.48612 -1.00725 -0.420874
thorax 1.37015 -0.891754 2.40702
lowerneck -10.7433 0.269219 -1.90703
upperneck 36.6336 -3.80748 1.03926
head 14.4335 -3.20116 -0.178111
rclavicle 1.19659e-014 -1.41137e-014
rhumerus -47.2286 23.3425 -96.3066
rradius 23.401
rwrist -14.7719
rhand 23.4045 3.42187
rfingers 7.12502
rthumb 47.6924 -18.9332
lclavicle 1.19659e-014 -1.41137e-014
lhumerus -44.129 -2.17411 78.1804
lradius 24.7076
lwrist -2.47546
lhand 25.7467 20.4098
lfingers 7.12502
lthumb 49.8458 41.7132
rfemur -35.0367 -23.7636 32.652
rtibia 66.1213
rfoot 21.0488 -30.4945
rtoes 32.1574
lfemur -45.5266 -1.69416 -32.4418
ltibia 45.3944
lfoot -34.5944 18.2792
ltoes 3.90047
